<?xml version="1.0" standalone="no"?>
<!DOCTYPE svg PUBLIC "-//W3C//DTD SVG 20010904//EN"
 "http://www.w3.org/TR/2001/REC-SVG-20010904/DTD/svg10.dtd">
<svg version="1.0" xmlns="http://www.w3.org/2000/svg"
 width="1100.000000pt" height="1280.000000pt" viewBox="0 0 1100.000000 1280.000000"
 preserveAspectRatio="xMidYMid meet">
<metadata>
Created by potrace 1.15, written by Peter Selinger 2001-2017
</metadata>
<g transform="translate(0.000000,1280.000000) scale(0.100000,-0.100000)"
fill="#000000" stroke="none">
<path d="M9305 12786 c-102 -16 -182 -40 -265 -78 -36 -16 -99 -38 -140 -48
-356 -87 -621 -354 -805 -810 -21 -52 -39 -96 -40 -97 0 -1 -50 5 -110 13
-1435 190 -3429 206 -4941 39 -1064 -118 -2006 -332 -2512 -571 -227 -107
-403 -249 -461 -373 -39 -85 -37 -183 6 -274 69 -144 265 -291 552 -412 43
-18 164 -100 365 -249 987 -731 1734 -1266 2301 -1649 816 -552 1255 -903
1484 -1189 159 -198 195 -273 232 -488 34 -198 40 -578 37 -2426 l-2 -1740
-21 4 c-27 5 -334 -49 -535 -94 -717 -159 -1277 -426 -1445 -688 -59 -93 -78
-164 -82 -316 -3 -74 0 -153 5 -175 9 -38 10 -36 11 32 1 40 6 96 13 125 l12
53 7 -57 c12 -108 135 -311 247 -408 69 -60 181 -111 256 -117 103 -9 110 31
26 141 -25 33 -65 92 -88 130 -61 102 -91 184 -158 433 -17 62 -57 113 -88
113 -13 0 -49 -18 -81 -41 -66 -46 -66 -47 23 79 119 170 309 295 650 431 429
171 1069 327 1211 296 l31 -7 -53 -43 c-135 -109 -182 -239 -130 -355 36 -81
109 -127 262 -166 125 -32 244 -40 356 -24 155 22 271 65 333 124 48 45 64 81
64 147 0 78 -44 159 -139 257 -40 41 -73 79 -73 85 0 6 6 3 13 -6 9 -12 64
-24 217 -46 461 -68 801 -153 1110 -278 131 -53 306 -131 395 -176 62 -30 76
-35 61 -18 -52 58 -296 191 -495 271 -433 172 -1133 341 -1281 308 -13 -3 -15
241 -15 1992 0 1851 1 2003 18 2111 29 196 65 303 127 381 17 20 27 43 25 51
-12 30 215 277 410 446 287 249 567 456 1150 851 346 234 744 514 1129 793
l229 166 40 -21 c159 -80 322 -121 497 -122 148 0 238 17 379 75 53 22 130 49
171 60 222 60 437 192 661 406 225 216 360 424 449 692 66 196 84 321 84 571
0 174 -4 242 -22 356 -106 672 -361 1122 -768 1358 -255 148 -613 216 -899
172z m-3520 -966 c677 -14 1153 -41 1680 -95 218 -23 547 -63 552 -69 1 -1
-13 -60 -31 -131 -62 -241 -86 -424 -86 -671 l0 -172 -72 14 c-339 65 -953
129 -1608 166 -300 17 -1477 17 -1780 0 -954 -54 -1585 -138 -2265 -302 -372
-90 -696 -214 -833 -319 l-52 -41 -178 59 c-384 127 -612 261 -699 408 -39 68
-44 163 -10 237 116 253 586 450 1517 635 846 168 1772 259 2865 280 204 4
404 8 445 9 41 1 291 -3 555 -8z m-4657 -1831 c33 -9 41 -17 44 -40 l4 -28
-58 41 c-57 40 -72 56 -44 45 8 -3 32 -11 54 -18z m4251 -3354 c49 -25 108
-102 130 -168 20 -61 20 -83 18 -2081 l-2 -2019 -104 -35 -104 -35 -108 34
-109 34 0 1950 c-1 1073 -5 1997 -9 2055 -8 93 -6 110 11 150 24 57 53 88 103
111 48 22 135 25 174 4z"/>
<path d="M5217 6183 c-30 -49 -47 -667 -47 -1773 0 -1260 19 -1816 60 -1774
36 38 52 568 52 1779 0 966 -11 1513 -32 1680 -10 75 -21 107 -33 88z"/>
<path d="M5423 2390 c0 -25 2 -35 4 -22 2 12 2 32 0 45 -2 12 -4 2 -4 -23z"/>
<path d="M7538 1495 c-26 -26 -43 -67 -96 -232 -64 -200 -182 -347 -383 -479
-58 -38 -114 -75 -125 -82 -16 -11 -10 -12 39 -6 111 11 244 71 390 175 163
116 255 239 276 367 17 107 -18 272 -60 280 -8 1 -27 -9 -41 -23z"/>
<path d="M3673 716 l-28 -25 20 -36 c41 -78 138 -110 183 -62 12 13 22 33 22
44 0 38 -99 103 -157 103 -7 0 -25 -11 -40 -24z"/>
<path d="M4908 203 c7 -3 16 -2 19 1 4 3 -2 6 -13 5 -11 0 -14 -3 -6 -6z"/>
<path d="M5688 203 c6 -2 18 -2 25 0 6 3 1 5 -13 5 -14 0 -19 -2 -12 -5z"/>
</g>
</svg>
